PathFileType	4	(X/Y/Z)	F:\MotionCapture\20160217\3\Generated_files\2_Test03-Dynamic.trc
DataRate	CameraRate	NumFrames	NumMarkers	Units	OrigDataRate	OrigDataStartFrame	OrigNumFrames
120.00	120.00	       9	39	mm	120.00	631	       841
Frame#	Time	Top.Head			Front.Head			Rear.Head			R.Shoulder			R.Offset			R.Elbow			R.Wrist			L.Shoulder			L.Elbow			L.Wrist			R.ASIS			L.ASIS			V.Sacral			R.Thigh			R.Knee			R.Shank			R.Ankle			R.Heel			R.Toe			L.Thigh			L.Knee			L.Shank			L.Ankle			L.Heel			L.Toe			R1			R2			R3			R4			R5			R6			R7			L1			L2			L3			L4			L5			L6			L7			V_Mid_ASIS			V_Pelvis_Origin			V_R.Hip_JC			V_L.Hip_JC			V_R.Knee_JC			V_L.Knee_JC			V_R.Ankle_JC			V_L.Ankle_JC			V_Mid_Hip			V_Mid_Shoulder			V_R.Hand			V_L.Hand			V_R.Toe_Offset_Static			V_L.Toe_Offset_Static			V_R.Toe_Offset			V_L.Toe_Offset			
		X1	Y1	Z1	X2	Y2	Z2	X3	Y3	Z3	X4	Y4	Z4	X5	Y5	Z5	X6	Y6	Z6	X7	Y7	Z7	X8	Y8	Z8	X9	Y9	Z9	X10	Y10	Z10	X11	Y11	Z11	X12	Y12	Z12	X13	Y13	Z13	X14	Y14	Z14	X15	Y15	Z15	X16	Y16	Z16	X17	Y17	Z17	X18	Y18	Z18	X19	Y19	Z19	X20	Y20	Z20	X21	Y21	Z21	X22	Y22	Z22	X23	Y23	Z23	X24	Y24	Z24	X25	Y25	Z25	X26	Y26	Z26	X27	Y27	Z27	X28	Y28	Z28	X29	Y29	Z29	X30	Y30	Z30	X31	Y31	Z31	X32	Y32	Z32	X33	Y33	Z33	X34	Y34	Z34	X35	Y35	Z35	X36	Y36	Z36	X37	Y37	Z37	X38	Y38	Z38	X39	Y39	Z39	

631	5.250	-2504.03101	215.90771	1687.45752	-2605.78613	205.53967	1592.65784	-2387.63647	217.01395	1629.78186	-2410.53613	399.65912	1374.58960	-2298.67603	113.83250	1239.98315	-2319.95654	465.82104	1055.78479	-2360.89941	483.78458	796.68591	-2461.48779	-3.91131	1398.38269	-2510.35718	-139.13191	1094.08118	-2726.29883	-119.97694	953.97699	-2524.68433	322.48764	925.84119	-2513.09521	35.65174	910.96576	-2289.76270	191.30612	900.55853	-2659.08496	272.98978	594.44440	-2624.48853	319.25162	463.07953	-2641.78076	234.90030	234.42651	-2595.13916	302.70633	64.70925	-2531.40723	241.75439	41.28849	-2740.97168	290.43103	37.55751	-2522.79565	37.12374	569.84918	-2387.28760	-11.18324	427.29666	-2301.38696	59.21666	309.13907	-2036.29028	25.37921	215.83412	-2014.50037	95.06556	262.21118	-2048.88867	23.82404	73.62704	-2787.97266	270.80594	34.85944	-2748.73657	251.50667	42.24211	-2649.97754	213.49290	49.25985	-2573.07642	211.91185	40.38836	-2561.34692	284.71823	40.84312	-2633.97070	312.52545	35.44318	-2700.11743	331.62311	34.65076	-2070.53198	39.59347	35.72314	-2064.25317	58.18510	64.72326	-2065.17480	103.73863	150.34909	-2035.61475	119.68132	227.23570	-2008.25671	53.62349	239.36868	-2010.54395	15.94278	166.48242	-2024.12903	1.29600	107.99565																																																	-2742.29004	393.66983	-20.29358	
632	5.258	-2514.96973	217.42651	1689.90222	-2616.69287	205.74541	1595.27490	-2398.44653	218.79376	1632.15002	-2422.49097	400.87268	1377.46936	-2310.00000	114.80564	1242.57849	-2336.91797	468.10510	1056.99133	-2383.79272	485.30325	798.84796	-2472.83301	-2.89695	1401.21143	-2517.98657	-138.13269	1095.34229	-2730.28564	-118.84298	950.08673	-2535.72998	324.05472	927.86670	-2524.30054	37.19268	913.51453	-2302.85669	192.43555	902.88745	-2666.15332	273.38004	593.87097	-2628.79980	320.96356	462.83578	-2644.85327	235.82205	233.92191	-2595.18604	302.71869	64.63713	-2531.42188	241.60081	41.40034	-2740.99072	290.64621	37.44278	-2541.41016	40.57438	573.02631	-2410.71094	-10.03875	427.60995	-2323.63574	61.18656	311.26373	-2057.26001	27.39743	222.68938	-2038.29016	98.11108	268.19485	-2064.95508	21.97724	80.45464	-2787.84521	271.45538	34.61157	-2748.65503	251.77303	42.21547	-2649.78467	214.10883	48.59806	-2573.10083	211.85909	40.49683	-2561.17969	284.54700	40.82942	-2633.98193	312.41217	35.42263	-2699.34814	333.10193	34.29261	-2084.37354	34.21433	41.77080	-2080.15112	55.09011	69.59724	-2084.32642	104.30077	153.86140	-2058.18921	121.46232	231.74445	-2030.55664	56.63638	246.33885	-2029.97949	17.17967	174.39674	-2041.35803	1.22597	115.94805																																																	-2790.78198	357.22934	-17.10890	
633	5.267	-2525.89063	218.47086	1692.73328	-2627.62329	205.77806	1598.05359	-2409.75952	220.06302	1634.60852	-2434.28125	401.92905	1380.30212	-2320.95435	116.24086	1245.14490	-2353.25366	470.36835	1058.48975	-2406.50659	486.72427	801.30133	-2483.60767	-1.83807	1403.77820	-2525.09180	-136.64297	1097.16992	-2734.09229	-117.73768	946.40564	-2546.96606	325.22580	929.79694	-2535.52417	38.02738	916.25580	-2312.48120	193.44414	905.57587	-2672.67114	273.90662	593.23944	-2631.60791	321.54736	461.77368	-2648.05200	237.00870	233.51781	-2592.93481	304.68961	65.53667	-2531.40015	241.48810	41.52156	-2740.97168	290.81488	37.38330	-2559.99780	44.03384	576.75684	-2433.82397	-8.95615	428.99329	-2345.85278	63.30854	313.38205	-2078.94507	29.76675	228.71390	-2061.18018	102.03234	272.14819	-2084.41187	20.16419	86.69448	-2787.89038	271.55353	34.50031	-2748.69434	252.02777	42.20067	-2649.75366	214.18527	48.45247	-2573.13867	211.87537	40.56181	-2561.09619	284.63773	40.96265	-2634.19092	312.34232	35.57814	-2699.37256	333.13504	34.30635	-2102.40015	32.52393	45.38047	-2099.08936	53.27025	73.71354	-2105.84546	104.78677	157.11487	-2080.50000	124.93328	235.29192	-2052.97925	59.75171	251.62495	-2050.73657	18.98042	180.92860	-2060.98096	0.75918	122.96829																																																	-2791.33667	357.52972	-17.02853	
634	5.275	-2536.84253	219.00818	1695.44470	-2638.41040	205.31787	1600.97400	-2420.48999	221.86519	1637.71179	-2445.68677	403.15250	1382.97510	-2331.77417	117.67093	1247.65369	-2370.04883	472.39514	1059.72632	-2429.93262	488.92371	804.90179	-2494.26563	-0.98841	1406.37866	-2532.32153	-135.12556	1098.81812	-2737.38208	-116.82110	942.62225	-2557.88916	326.06223	932.02826	-2546.39160	38.71402	919.16888	-2324.29590	194.84082	908.17010	-2678.60767	274.34998	592.69684	-2634.83838	323.67615	461.73257	-2650.36768	237.92499	233.20210	-2592.96997	304.73886	65.71554	-2531.20117	241.74988	41.44332	-2740.99219	290.97192	37.28151	-2578.51538	47.49940	580.90131	-2457.08740	-7.72964	431.23019	-2368.39185	65.68594	315.87799	-2100.98999	32.42009	233.06270	-2083.75952	105.72046	275.14413	-2106.77563	19.24932	91.36119	-2787.85840	271.86542	34.39114	-2748.71387	252.23932	42.20344	-2649.80566	214.25279	48.47082	-2573.16772	211.86090	40.60403	-2560.98364	284.37842	41.08452	-2634.15576	312.26224	35.55576	-2699.37622	333.15430	34.24506	-2123.70361	31.53699	48.48566	-2120.95410	52.43262	77.18225	-2128.47021	106.12086	159.87442	-2102.77197	126.81927	236.42854	-2075.60913	62.97053	255.56589	-2074.15723	20.12466	186.10101	-2083.72754	0.52058	128.65071																																																	-2686.51270	267.02420	509.11172	-2791.52002	357.66403	-16.98753	
635	5.283	-2547.70044	219.62743	1698.17847	-2649.23071	204.97658	1603.78699	-2431.53955	223.71063	1640.48560	-2457.50928	404.02441	1386.09229	-2342.54810	120.13797	1250.71863	-2386.59058	474.50986	1061.98523	-2453.19043	490.10806	807.91058	-2504.42676	-0.80758	1409.09937	-2539.25342	-133.55162	1100.64526	-2740.15210	-116.05225	938.70282	-2568.46143	326.79086	934.28394	-2556.48389	39.13179	922.03778	-2334.92700	195.77286	911.11334	-2684.20874	275.04883	592.01801	-2637.46313	324.08939	461.52835	-2651.73462	238.61496	233.14874	-2595.04614	302.54535	64.58406	-2531.38672	242.07768	41.50732	-2740.96777	291.20886	37.20927	-2597.03882	50.83790	585.52020	-2480.38770	-6.95074	434.48853	-2391.09424	67.88850	318.50580	-2124.66724	34.62381	236.30719	-2105.36938	108.45055	276.47662	-2131.80200	19.40830	94.59061	-2787.35522	271.63629	33.53021	-2748.75977	252.48491	42.29107	-2649.72388	214.45815	48.35052	-2573.20972	211.83318	40.68348	-2560.91553	284.28107	41.10831	-2634.10449	312.36606	35.50838	-2699.21997	333.38712	34.09904	-2148.18311	30.60370	51.13436	-2145.58813	52.10990	79.91859	-2151.31812	107.59241	162.04503	-2124.97217	129.06084	238.22662	-2098.14282	65.03304	257.45367	-2098.81494	21.37466	189.25537	-2109.39575	0.98259	132.13397																																																	-2791.67017	357.78546	-16.91547	
636	5.292	-2558.77222	220.50916	1701.21375	-2659.89111	204.53300	1606.71570	-2442.31714	224.94151	1643.15564	-2469.22217	404.77063	1389.14001	-2353.07886	121.66273	1252.56555	-2403.29980	476.60263	1063.99377	-2476.84644	492.42859	812.53265	-2514.70801	-0.29317	1411.73889	-2546.24536	-132.35796	1102.84277	-2742.53174	-115.13400	934.83331	-2579.09155	327.36987	936.61102	-2568.10986	39.45449	925.12299	-2345.64038	195.84314	914.15869	-2689.34668	276.03690	591.18512	-2640.77417	325.49661	461.99927	-2653.22681	239.22685	233.03415	-2592.76245	304.78354	65.83668	-2531.33521	242.03931	41.62952	-2740.92065	291.31769	37.09196	-2615.12256	53.68969	590.24573	-2502.72119	-5.20676	437.16733	-2414.08008	69.85645	321.08423	-2148.31079	36.31256	237.20786	-2127.12280	110.51661	276.90152	-2159.37451	19.84510	96.74190	-2787.33838	271.77734	33.49652	-2748.73145	252.63792	42.27559	-2649.70410	214.57253	48.41761	-2573.20874	211.88168	40.73254	-2560.79834	284.28064	41.24371	-2634.06201	312.41345	35.48803	-2699.43506	332.72540	33.89828	-2175.24072	30.31431	52.69405	-2172.41699	52.51017	81.76651	-2175.72729	109.00872	163.18497	-2146.98364	131.07245	238.62622	-2120.87207	67.27415	258.14413	-2124.05371	22.61899	190.70395	-2136.45752	1.43524	133.80025	
637	5.300	-2569.50220	221.02170	1703.97974	-2670.38965	203.77376	1609.44556	-2453.29541	226.88123	1646.05725	-2480.97046	405.06158	1392.51294	-2364.08667	123.23952	1255.76086	-2419.94727	479.28192	1066.34521	-2500.23853	493.48999	816.75732	-2524.38794	0.52784	1414.84546	-2553.27783	-130.99310	1104.68457	-2744.68774	-114.64323	931.20593	-2589.43896	327.97684	938.90326	-2578.96338	40.08181	928.40106	-2353.11841	198.32686	918.49023	-2694.48486	277.40994	590.19794	-2643.66528	325.58597	461.66171	-2653.78345	239.33855	232.87206	-2592.64722	304.81458	65.79414	-2531.27344	242.09091	41.78327	-2740.90015	291.43695	36.99464	-2633.05298	56.02579	595.47559	-2524.66968	-3.57697	439.83121	-2437.67896	71.60823	323.68515	-2172.39136	38.14045	237.62920	-2148.50171	112.14371	276.28311	-2188.55664	20.81807	97.74894	-2787.37769	271.90570	33.43015	-2748.67651	252.76372	42.21033	-2650.00098	214.01241	49.20246	-2573.31372	211.98235	41.10310	-2560.73511	284.36282	41.27210	-2634.02686	312.47885	35.44668	-2699.15942	333.60150	33.99426	-2205.00049	30.80367	53.13617	-2201.44873	53.25555	82.68061	-2200.68384	111.26709	164.15411	-2169.31714	132.94556	238.58600	-2143.79858	68.67467	257.47354	-2149.80469	23.83138	190.48663	-2164.47900	2.40935	134.24942																																																	-2791.52051	357.89258	-17.10518	
638	5.308	-2580.19946	221.35611	1706.66821	-2680.84399	202.35344	1612.22815	-2463.85181	227.83769	1648.95361	-2492.71265	405.54800	1395.79407	-2374.36499	124.93491	1258.53442	-2436.69312	481.67065	1069.18787	-2523.62744	494.66360	821.46759	-2533.83105	0.85745	1417.44287	-2559.84448	-129.83760	1106.72632	-2746.23584	-113.65308	927.60742	-2599.78662	328.55295	941.35480	-2589.38989	41.01165	931.70258	-2366.39722	197.47513	920.87708	-2699.27954	278.48734	589.01141	-2646.29541	325.74332	461.67816	-2654.17090	239.21147	232.93810	-2592.61133	304.93546	65.79949	-2531.26709	242.34845	42.08531	-2740.91382	291.53836	36.92535	-2650.71265	58.12130	600.75360	-2546.41455	-1.79017	443.55237	-2460.99268	73.30679	326.19052	-2196.47632	39.80692	236.97296	-2169.77466	113.99691	274.09161	-2218.96777	22.17673	97.93391	-2787.42773	272.00644	33.40398	-2748.62329	252.84753	42.16009	-2649.98389	214.18796	49.45674	-2573.21680	212.18369	41.40582	-2560.67334	284.51926	41.25448	-2633.93408	312.65338	35.34853	-2699.07397	333.81158	33.83819	-2236.59448	32.21483	52.90409	-2232.39087	54.50003	82.86452	-2226.95361	112.56548	164.23724	-2192.15308	134.96095	237.34930	-2166.98096	69.72746	255.31691	-2176.12256	24.96361	188.41356	-2193.83374	3.82234	133.45580																																																	-2791.19751	357.95544	-17.34978	
639	5.317	-2590.95508	221.17946	1709.56836	-2691.28735	202.38132	1614.99548	-2474.64941	228.74040	1651.59839	-2504.27515	406.16235	1399.21204	-2385.18823	126.64246	1260.95471	-2452.76563	483.95612	1071.46924	-2547.65527	496.86810	827.24481	-2543.15308	0.69868	1419.97107	-2566.58081	-128.71869	1108.85425	-2747.60010	-112.91263	923.74042	-2609.73486	329.50012	943.53967	-2600.15454	41.63655	935.07043	-2377.45825	197.24626	923.70966	-2703.74048	279.44498	588.09497	-2649.76392	326.82385	461.83322	-2654.29639	238.85622	233.14127	-2592.50806	305.18259	65.87867	-2531.17285	242.60019	42.38744	-2740.91626	291.59818	36.84745	-2668.34937	59.78108	606.46863	-2567.77148	-0.31168	447.22168	-2484.64160	74.90376	328.74524	-2221.29370	41.71642	234.79039	-2191.82959	115.18523	270.56726	-2250.60034	24.20719	97.14171	-2787.41968	272.02994	33.29691	-2748.60669	252.93263	42.16398	-2649.85889	214.47145	49.65482	-2573.48828	211.78989	42.00096	-2560.77466	284.76422	41.35262	-2633.90381	312.89236	35.30762	-2699.07153	333.96054	33.76662	-2269.95288	34.56182	52.09707	-2264.10376	56.52604	82.81370	-2254.17114	114.67682	163.84460	-2215.32031	136.27698	234.71613	-2190.94824	70.94488	251.90332	-2203.25732	26.57204	185.17403	-2223.99707	5.58866	131.51903																																																	-2586.45190	210.37473	69.98527	-2791.06909	358.03363	-17.52706	
